<svg
	version="1.1"
	id="Layer_1"
	xmlns="http://www.w3.org/2000/svg"
	xmlns:xlink="http://www.w3.org/1999/xlink"
	x="0px"
	y="0px"
	viewBox="0 0 100 100"
	style="enable-background:new 0 0 100 100"
	xmlSpace="preserve"
	width="80"
	height="80"
	fill="#fff226"
>
	<g>
		<g>
			<g>
				<g>
					<path
						className="navi-color"
						d="M0,95.2l0-52.5L100,7.2l0,52.5L0,95.2z M2.2,44.2v47.9l95.6-33.9V10.3L2.2,44.2z"
					></path>
				</g>
			</g>
		</g>
		<g>
			<g>
				<g>
					<polygon
						className="navi-color"
						points="7.2,48 7.2,84.9 20.7,80.1 20.7,43.2"
					></polygon>
				</g>
			</g>
			<g>
				<g>
					<polygon
						className="navi-color"
						points="92.9,17.6 79.5,22.3 79.5,59.2 92.9,54.5"
					></polygon>
				</g>
			</g>
			<g>
				<g>
					<polygon
						className="navi-color"
						points="46,34.2 32.7,38.9 32.7,52 46,69"
					></polygon>
				</g>
			</g>
			<g>
				<g>
					<polygon
						className="navi-color"
						points="77.2,23.1 63.8,27.9 63.8,41 77.2,57.9"
					></polygon>
				</g>
			</g>
			<g>
				<g>
					<polygon
						className="navi-color"
						points="23,65.4 31.5,76.2 45,71.4 23,43.8"
					></polygon>
				</g>
			</g>
			<g>
				<g>
					<polygon
						className="navi-color"
						points="48.4,33.3 48.4,47.1 53.6,53.7 48.4,55.6 48.4,65.3 59.6,61.3 62.6,65.1 76.2,60.4 53.4,31.6 									"
					></polygon>
				</g>
			</g>
		</g>
	</g>
</svg>